<svg width="900" height="400" xmlns="http://www.w3.org/2000/svg">

 <g id="SContent">
  <g id="svg_1">
   <g id="svg_2" transform="matrix(1,0,0,-1,0,1445.6693) ">
    <g id="svg_3" transform="matrix(1,0,0,1,341.5748,1106.9292) ">
     <title>Shape110000</title>
     <g id="svg_4">
      <title>Shape1</title>
      <path id="svg_5" fill-rule="evenodd" fill="#FFFFFF" stroke-linecap="round" stroke-width="1.417323" stroke="#000000" d="m0,128.97638l0,18.4252l0,0l99.2126,0l0,0l0,-18.4252"/>
      <path id="svg_6" fill="none" stroke-linecap="round" stroke-width="1.417323" stroke="#000000" d="m0,128.97638l0,-128.97638l0,0l99.2126,0l0,0l0,128.97638"/>
      <path id="svg_7" fill="none" stroke-linecap="round" stroke-width="1.417323" stroke="#000000" d="m0,128.97638l99.2126,0"/>
      <g id="svg_8" transform="matrix(1,0,0,1,1.4173241,130.3937) ">
       <text id="svg_9" transform="matrix(1,0,0,-1,0,10.26992) " fill="#000000" class="TextStyle0" y="4.949291" x="40.439598">User</text>
      </g>
     </g>
     <g id="svg_10" transform="matrix(1,0,0,1,0,110.55118) ">
      <title>Shape2</title>
      <path id="svg_11" fill-rule="evenodd" fill="#FFFFFF" stroke-linecap="round" stroke-width="1.417323" stroke="#000000" d="m0,18.4252l99.2126,0l0,0l0,-18.4252l0,0l-99.2126,0l0,0l0,18.4252"/>
      <g id="svg_12" transform="matrix(1,0,0,1,-27.637794,0.7086611) ">
       <text id="svg_13" transform="matrix(1,0,0,-1,0,10.26992) " fill="#000000" class="TextStyle0" y="4.949291" x="32.916656">user_id</text>
      </g>
     </g>
     <g id="svg_14" transform="matrix(1,0,0,1,0,92.125984) ">
      <title>Shape3</title>
      <path id="svg_15" fill-rule="evenodd" fill="#FFFFFF" stroke-linecap="round" stroke-width="1.417323" stroke="#000000" d="m0,18.4252l99.2126,0l0,0l0,-18.4252l0,0l-99.2126,0l0,0l0,18.4252"/>
      <g id="svg_16" transform="matrix(1,0,0,1,-22.677166,0.7086611) ">
       <text id="svg_17" transform="matrix(1,0,0,-1,0,10.26992) " fill="#000000" class="TextStyle0" y="4.949291" x="28.415655">human_id</text>
      </g>
     </g>
     <g id="svg_18" transform="matrix(1,0,0,1,0,73.70079) ">
      <title>Shape4</title>
      <path id="svg_19" fill-rule="evenodd" fill="#FFFFFF" stroke-linecap="round" stroke-width="1.417323" stroke="#000000" d="m0,18.4252l99.2126,0l0,0l0,-18.4252l0,0l-99.2126,0l0,0l0,18.4252"/>
      <g id="svg_20" transform="matrix(1,0,0,1,-17.362206,0.7086611) ">
       <text id="svg_21" transform="matrix(1,0,0,-1,0,10.26992) " fill="#000000" class="TextStyle0" y="4.949291" x="23.580349">employee_id</text>
      </g>
     </g>
     <g id="svg_22" transform="matrix(1,0,0,1,0,55.27559) ">
      <title>Shape5</title>
      <path id="svg_23" fill-rule="evenodd" fill="#FFFFFF" stroke-linecap="round" stroke-width="1.417323" stroke="#000000" d="m0,18.4252l99.2126,0l0,0l0,-18.4252l0,0l-99.2126,0l0,0l0,18.4252"/>
      <g id="svg_24" transform="matrix(1,0,0,1,-20.19685,0.7086611) ">
       <text id="svg_25" transform="matrix(1,0,0,-1,0,10.26992) " fill="#000000" class="TextStyle0" y="4.949291" x="26.54074">user_name</text>
      </g>
     </g>
     <g id="svg_26" transform="matrix(1,0,0,1,0,36.850395) ">
      <title>Shape6</title>
      <path id="svg_27" fill-rule="evenodd" fill="#FFFFFF" stroke-linecap="round" stroke-width="1.417323" stroke="#000000" d="m0,18.4252l99.2126,0l0,0l0,-18.4252l0,0l-99.2126,0l0,0l0,18.4252"/>
      <g id="svg_28" transform="matrix(1,0,0,1,-21.968504,0.7086611) ">
       <text id="svg_29" transform="matrix(1,0,0,-1,0,10.26992) " fill="#000000" class="TextStyle0" y="4.949291" x="28.661346">user_pass</text>
      </g>
     </g>
     <g id="svg_30" transform="matrix(1,0,0,1,0,18.425196) ">
      <title>Shape7</title>
      <path id="svg_31" fill-rule="evenodd" fill="#FFFFFF" stroke-linecap="round" stroke-width="1.417323" stroke="#000000" d="m0,18.4252l99.2126,0l0,0l0,-18.4252l0,0l-99.2126,0l0,0l0,18.4252"/>
      <g id="svg_32" transform="matrix(1,0,0,1,-22.677166,0.7086611) ">
       <text id="svg_33" transform="matrix(1,0,0,-1,0,10.26992) " fill="#000000" class="TextStyle0" y="4.949291" x="28.866762">user_mail</text>
      </g>
     </g>
     <g id="svg_34">
      <title>Shape8</title>
      <path id="svg_35" fill-rule="evenodd" fill="#FFFFFF" stroke-linecap="round" stroke-width="1.417323" stroke="#000000" d="m0,18.4252l99.2126,0l0,0l0,-18.4252l0,0l-99.2126,0l0,0l0,18.4252"/>
      <g id="svg_36" transform="matrix(1,0,0,1,-19.133858,0.7086611) ">
       <text id="svg_37" transform="matrix(1,0,0,-1,0,10.26992) " fill="#000000" class="TextStyle0" y="4.949291" x="25.819775">user_image</text>
      </g>
     </g>
    </g>
    <g id="svg_38" transform="matrix(1,0,0,1,171.49606,1125.3544) ">
     <title>Shape910000</title>
     <g id="svg_39">
      <title>Shape9</title>
      <path id="svg_40" fill-rule="evenodd" fill="#FFFFFF" stroke-linecap="round" stroke-width="1.417323" stroke="#000000" d="m0,110.55118l0,18.4252l0,0l99.2126,0l0,0l0,-18.4252"/>
      <path id="svg_41" fill="none" stroke-linecap="round" stroke-width="1.417323" stroke="#000000" d="m0,110.55118l0,-110.55118l0,0l99.2126,0l0,0l0,110.55118"/>
      <path id="svg_42" fill="none" stroke-linecap="round" stroke-width="1.417323" stroke="#000000" d="m0,110.55118l99.2126,0"/>
      <g id="svg_43" transform="matrix(1,0,0,1,1.4173241,111.968506) ">
       <text id="svg_44" transform="matrix(1,0,0,-1,0,10.26992) " fill="#000000" class="TextStyle0" y="4.949291" x="36.015118">Human</text>
      </g>
     </g>
     <g id="svg_45" transform="matrix(1,0,0,1,0,92.125984) ">
      <title>Shape10</title>
      <path id="svg_46" fill-rule="evenodd" fill="#FFFFFF" stroke-linecap="round" stroke-width="1.417323" stroke="#000000" d="m0,18.4252l99.2126,0l0,0l0,-18.4252l0,0l-99.2126,0l0,0l0,18.4252"/>
      <g id="svg_47" transform="matrix(1,0,0,1,-22.677166,0.7086611) ">
       <text id="svg_48" transform="matrix(1,0,0,-1,0,10.26992) " fill="#000000" class="TextStyle0" y="4.949291" x="28.415655">human_id</text>
      </g>
     </g>
     <g id="svg_49" transform="matrix(1,0,0,1,0,73.70079) ">
      <title>Shape11</title>
      <path id="svg_50" fill-rule="evenodd" fill="#FFFFFF" stroke-linecap="round" stroke-width="1.417323" stroke="#000000" d="m0,18.4252l99.2126,0l0,0l0,-18.4252l0,0l-99.2126,0l0,0l0,18.4252"/>
      <g id="svg_51" transform="matrix(1,0,0,1,-22.677166,0.7086611) ">
       <text id="svg_52" transform="matrix(1,0,0,-1,0,10.26992) " fill="#000000" class="TextStyle0" y="4.949291" x="28.369335">gender_id</text>
      </g>
     </g>
     <g id="svg_53" transform="matrix(1,0,0,1,0,55.27559) ">
      <title>Shape12</title>
      <path id="svg_54" fill-rule="evenodd" fill="#FFFFFF" stroke-linecap="round" stroke-width="1.417323" stroke="#000000" d="m0,18.4252l99.2126,0l0,0l0,-18.4252l0,0l-99.2126,0l0,0l0,18.4252"/>
      <g id="svg_55" transform="matrix(1,0,0,1,-8.503938,0.7086611) ">
       <text id="svg_56" transform="matrix(1,0,0,-1,0,10.26992) " fill="#000000" class="TextStyle0" y="4.949291" x="16.122982">human_lastname</text>
      </g>
     </g>
     <g id="svg_57" transform="matrix(1,0,0,1,0,36.850395) ">
      <title>Shape13</title>
      <path id="svg_58" fill-rule="evenodd" fill="#FFFFFF" stroke-linecap="round" stroke-width="1.417323" stroke="#000000" d="m0,18.4252l99.2126,0l0,0l0,-18.4252l0,0l-99.2126,0l0,0l0,18.4252"/>
      <g id="svg_59" transform="matrix(1,0,0,1,-8.149607,0.7086611) ">
       <text id="svg_60" transform="matrix(1,0,0,-1,0,10.26992) " fill="#000000" class="TextStyle0" y="4.949291" x="15.402015">human_firstname</text>
      </g>
     </g>
     <g id="svg_61" transform="matrix(1,0,0,1,0,18.425196) ">
      <title>Shape14</title>
      <path id="svg_62" fill-rule="evenodd" fill="#FFFFFF" stroke-linecap="round" stroke-width="1.417323" stroke="#000000" d="m0,18.4252l99.2126,0l0,0l0,-18.4252l0,0l-99.2126,0l0,0l0,18.4252"/>
      <g id="svg_63" transform="matrix(1,0,0,1,-4.9606304,0.7086611) ">
       <text id="svg_64" transform="matrix(1,0,0,-1,0,10.26992) " fill="#000000" class="TextStyle0" y="4.949291" x="12.373153">human_patronymic</text>
      </g>
     </g>
     <g id="svg_65">
      <title>Shape15</title>
      <path id="svg_66" fill-rule="evenodd" fill="#FFFFFF" stroke-linecap="round" stroke-width="1.417323" stroke="#000000" d="m0,18.4252l99.2126,0l0,0l0,-18.4252l0,0l-99.2126,0l0,0l0,18.4252"/>
      <g id="svg_67" transform="matrix(1,0,0,1,-1.4173231,0.7086611) ">
       <text id="svg_68" transform="matrix(1,0,0,-1,0,10.26992) " fill="#000000" class="TextStyle0" y="4.949291" x="8.311174">human_date_of_birth</text>
      </g>
     </g>
    </g>
    <g id="svg_69" transform="matrix(1,0,0,1,43.937004,1199.055) ">
     <title>Shape1610000</title>
     <g id="svg_70">
      <title>Shape16</title>
      <path id="svg_71" fill-rule="evenodd" fill="#FFFFFF" stroke-linecap="round" stroke-width="1.417323" stroke="#000000" d="m0,36.8504l0,18.42519l0,0l99.2126,0l0,0l0,-18.42519"/>
      <path id="svg_72" fill="none" stroke-linecap="round" stroke-width="1.417323" stroke="#000000" d="m0,36.8504l0,-36.8504l0,0l99.2126,0l0,0l0,36.8504"/>
      <path id="svg_73" fill="none" stroke-linecap="round" stroke-width="1.417323" stroke="#000000" d="m0,36.8504l99.2126,0"/>
      <g id="svg_74" transform="matrix(1,0,0,1,1.4173241,38.267715) ">
       <text id="svg_75" transform="matrix(1,0,0,-1,0,10.26992) " fill="#000000" class="TextStyle0" y="4.949291" x="35.711025">Gender</text>
      </g>
     </g>
     <g id="svg_76" transform="matrix(1,0,0,1,0,18.425196) ">
      <title>Shape17</title>
      <path id="svg_77" fill-rule="evenodd" fill="#FFFFFF" stroke-linecap="round" stroke-width="1.417323" stroke="#000000" d="m0,18.4252l99.2126,0l0,0l0,-18.4252l0,0l-99.2126,0l0,0l0,18.4252"/>
      <g id="svg_78" transform="matrix(1,0,0,1,-22.677166,0.7086611) ">
       <text id="svg_79" transform="matrix(1,0,0,-1,0,10.26992) " fill="#000000" class="TextStyle0" y="4.949291" x="28.369335">gender_id</text>
      </g>
     </g>
     <g id="svg_80">
      <title>Shape18</title>
      <path id="svg_81" fill-rule="evenodd" fill="#FFFFFF" stroke-linecap="round" stroke-width="1.417323" stroke="#000000" d="m0,18.4252l99.2126,0l0,0l0,-18.4252l0,0l-99.2126,0l0,0l0,18.4252"/>
      <g id="svg_82" transform="matrix(1,0,0,1,-15.590549,0.7086611) ">
       <text id="svg_83" transform="matrix(1,0,0,-1,0,10.26992) " fill="#000000" class="TextStyle0" y="4.949291" x="21.993416">gender_name</text>
      </g>
     </g>
    </g>
    <g id="svg_84" transform="matrix(1,0,0,1,-878.7402,1208.2677) ">
     <title>Dynamic connector.19</title>
     <g id="svg_85">
      <title>Dynamic connector.19</title>
      <path id="svg_86" opacity="0" fill-rule="evenodd" fill="#000000" stroke-width="1.417323" stroke="#000000" d="m1044.47632,-2.88l5.75989,2.88l-5.75989,2.88m0,-5.76c1.15198,1.728 1.15198,4.032 0,5.76"/>
      <path id="svg_87" stroke-opacity="0" fill="none" stroke-linecap="round" stroke-width="1.417323" stroke="#000000" d="m1021.88977,18.4252l14.17322,0l0,0l0,-18.4252l0,0l14.17322,0"/>
     </g>
     <path id="svg_88" fill-rule="evenodd" fill="#000000" stroke-width="1.417323" stroke="#000000" d="m1044.47632,-2.88l5.75989,2.88l-5.75989,2.88m0,-5.76c1.15198,1.728 1.15198,4.032 0,5.76"/>
     <path id="svg_89" fill="none" stroke-linecap="round" stroke-width="1.417323" stroke="#000000" d="m1021.88977,18.4252l14.17322,0l0,0l0,-18.4252l0,0l14.17322,0"/>
    </g>
    <g id="svg_90" transform="matrix(1,0,0,1,341.5748,1284.0945) ">
     <title>Shape2010000</title>
     <g id="svg_91">
      <title>Shape20</title>
      <path id="svg_92" fill-rule="evenodd" fill="#FFFFFF" stroke-linecap="round" stroke-width="1.417323" stroke="#000000" d="m0,36.8504l0,18.42519l0,0l99.2126,0l0,0l0,-18.42519"/>
      <path id="svg_93" fill="none" stroke-linecap="round" stroke-width="1.417323" stroke="#000000" d="m0,36.8504l0,-36.8504l0,0l99.2126,0l0,0l0,36.8504"/>
      <path id="svg_94" fill="none" stroke-linecap="round" stroke-width="1.417323" stroke="#000000" d="m0,36.8504l99.2126,0"/>
      <g id="svg_95" transform="matrix(1,0,0,1,1.4173241,38.267715) ">
       <text id="svg_96" transform="matrix(1,0,0,-1,0,10.26992) " fill="#000000" class="TextStyle0" y="4.949291" x="31.620852">Employee</text>
      </g>
     </g>
     <g id="svg_97" transform="matrix(1,0,0,1,0,18.425196) ">
      <title>Shape21</title>
      <path id="svg_98" fill-rule="evenodd" fill="#FFFFFF" stroke-linecap="round" stroke-width="1.417323" stroke="#000000" d="m0,18.4252l99.2126,0l0,0l0,-18.4252l0,0l-99.2126,0l0,0l0,18.4252"/>
      <g id="svg_99" transform="matrix(1,0,0,1,-17.362206,0.7086611) ">
       <text id="svg_100" transform="matrix(1,0,0,-1,0,10.26992) " fill="#000000" class="TextStyle0" y="4.949291" x="23.580349">employee_id</text>
      </g>
     </g>
     <g id="svg_101">
      <title>Shape22</title>
      <path id="svg_102" fill-rule="evenodd" fill="#FFFFFF" stroke-linecap="round" stroke-width="1.417323" stroke="#000000" d="m0,18.4252l99.2126,0l0,0l0,-18.4252l0,0l-99.2126,0l0,0l0,18.4252"/>
      <g id="svg_103" transform="matrix(1,0,0,1,-10.27559,0.7086611) ">
       <text id="svg_104" transform="matrix(1,0,0,-1,0,10.26992) " fill="#000000" class="TextStyle0" y="4.949291" x="17.204432">employee_name</text>
      </g>
     </g>
    </g>
    <g id="svg_105" transform="matrix(1,0,0,1,-694.48816,1189.8425) ">
     <title>Dynamic connector.23</title>
     <path id="svg_106" fill-rule="evenodd" fill="#000000" stroke-width="1.417323" stroke="#000000" d="m1030.30298,-2.88l5.76001,2.88l-5.76001,2.88m0,-5.76c1.15198,1.728 1.15198,4.032 0,5.76"/>
     <path id="svg_107" fill="none" stroke-linecap="round" stroke-width="1.417323" stroke="#000000" d="m1036.06299,121.88976l-14.17322,0l0,0l0,-121.88976l0,0l14.17322,0"/>
    </g>
    <g id="svg_108" transform="matrix(1,0,0,1,-751.1811,1208.2677) ">
     <title>Dynamic connector.24</title>
     <path id="svg_109" fill-rule="evenodd" fill="#000000" stroke-width="1.417323" stroke="#000000" d="m1086.99585,-2.88l5.76001,2.88l-5.76001,2.88m0,-5.76c1.15198,1.728 1.15198,4.032 0,5.76"/>
     <path id="svg_110" fill="none" stroke-linecap="round" stroke-width="1.417323" stroke="#000000" d="m1021.88977,18.4252l49.60632,0l0,0l0,-18.4252l0,0l21.25977,0"/>
    </g>
    <g id="svg_111" transform="matrix(1,0,0,1,511.65353,1162.2047) ">
     <title>Shape2510000</title>
     <g id="svg_112">
      <title>Shape25</title>
      <path id="svg_113" fill-rule="evenodd" fill="#FFFFFF" stroke-linecap="round" stroke-width="1.417323" stroke="#000000" d="m0,73.70079l0,18.42519l0,0l99.2126,0l0,0l0,-18.42519"/>
      <path id="svg_114" fill="none" stroke-linecap="round" stroke-width="1.417323" stroke="#000000" d="m0,73.70079l0,-73.70079l0,0l99.2126,0l0,0l0,73.70079"/>
      <path id="svg_115" fill="none" stroke-linecap="round" stroke-width="1.417323" stroke="#000000" d="m0,73.70079l99.2126,0"/>
      <g id="svg_116" transform="matrix(1,0,0,1,1.4173241,75.11812) ">
       <text id="svg_117" transform="matrix(1,0,0,-1,0,10.26992) " fill="#000000" class="TextStyle0" y="4.949291" x="30.837456">Ingredient</text>
      </g>
     </g>
     <g id="svg_118" transform="matrix(1,0,0,1,0,55.27559) ">
      <title>Shape26</title>
      <path id="svg_119" fill-rule="evenodd" fill="#FFFFFF" stroke-linecap="round" stroke-width="1.417323" stroke="#000000" d="m0,18.4252l99.2126,0l0,0l0,-18.4252l0,0l-99.2126,0l0,0l0,18.4252"/>
      <g id="svg_120" transform="matrix(1,0,0,1,-17.007875,0.7086611) ">
       <text id="svg_121" transform="matrix(1,0,0,-1,0,10.26992) " fill="#000000" class="TextStyle0" y="4.949291" x="22.927853">ingredient_id</text>
      </g>
     </g>
     <g id="svg_122" transform="matrix(1,0,0,1,0,36.850395) ">
      <title>Shape27</title>
      <path id="svg_123" fill-rule="evenodd" fill="#FFFFFF" stroke-linecap="round" stroke-width="1.417323" stroke="#000000" d="m0,18.4252l99.2126,0l0,0l0,-18.4252l0,0l-99.2126,0l0,0l0,18.4252"/>
      <g id="svg_124" transform="matrix(1,0,0,1,-9.566929,0.7086611) ">
       <text id="svg_125" transform="matrix(1,0,0,-1,0,10.26992) " fill="#000000" class="TextStyle0" y="4.949291" x="16.551935">ingredient_name</text>
      </g>
     </g>
     <g id="svg_126" transform="matrix(1,0,0,1,0,18.425196) ">
      <title>Shape28</title>
      <path id="svg_127" fill-rule="evenodd" fill="#FFFFFF" stroke-linecap="round" stroke-width="1.417323" stroke="#000000" d="m0,18.4252l99.2126,0l0,0l0,-18.4252l0,0l-99.2126,0l0,0l0,18.4252"/>
      <g id="svg_128" transform="matrix(1,0,0,1,-8.503938,0.7086611) ">
       <text id="svg_129" transform="matrix(1,0,0,-1,0,10.26992) " fill="#000000" class="TextStyle0" y="4.949291" x="15.830971">ingredient_image</text>
      </g>
     </g>
     <g id="svg_130">
      <title>Shape29</title>
      <path id="svg_131" fill-rule="evenodd" fill="#FFFFFF" stroke-linecap="round" stroke-width="1.417323" stroke="#000000" d="m0,18.4252l99.2126,0l0,0l0,-18.4252l0,0l-99.2126,0l0,0l0,18.4252"/>
      <g id="svg_132" transform="matrix(1,0,0,1,0.7086613,0.7086611) ">
       <text id="svg_133" transform="matrix(1,0,0,-1,0,10.26992) " fill="#000000" class="TextStyle0" y="4.949291" x="7.243818">ingredient_description</text>
      </g>
     </g>
    </g>
    <g id="svg_134" transform="matrix(1,0,0,1,681.73224,1088.5039) ">
     <title>Shape3010000</title>
     <g id="svg_135">
      <title>Shape30</title>
      <path id="svg_136" fill-rule="evenodd" fill="#FFFFFF" stroke-linecap="round" stroke-width="1.417323" stroke="#000000" d="m0,147.40158l0,18.4252l0,0l99.2126,0l0,0l0,-18.4252"/>
      <path id="svg_137" fill="none" stroke-linecap="round" stroke-width="1.417323" stroke="#000000" d="m0,147.40158l0,-147.40158l0,0l99.2126,0l0,0l0,147.40158"/>
      <path id="svg_138" fill="none" stroke-linecap="round" stroke-width="1.417323" stroke="#000000" d="m0,147.40158l99.2126,0"/>
      <g id="svg_139" transform="matrix(1,0,0,1,1.4173241,148.81891) ">
       <text id="svg_140" transform="matrix(1,0,0,-1,0,10.26992) " fill="#000000" class="TextStyle0" y="4.949291" x="39.77703">Food</text>
      </g>
     </g>
     <g id="svg_141" transform="matrix(1,0,0,1,0,128.97638) ">
      <title>Shape31</title>
      <path id="svg_142" fill-rule="evenodd" fill="#FFFFFF" stroke-linecap="round" stroke-width="1.417323" stroke="#000000" d="m0,18.4252l99.2126,0l0,0l0,-18.4252l0,0l-99.2126,0l0,0l0,18.4252"/>
      <g id="svg_143" transform="matrix(1,0,0,1,-26.929134,0.7086611) ">
       <text id="svg_144" transform="matrix(1,0,0,-1,0,10.26992) " fill="#000000" class="TextStyle0" y="4.949291" x="32.411175">food_id</text>
      </g>
     </g>
     <g id="svg_145" transform="matrix(1,0,0,1,0,110.55118) ">
      <title>Shape32</title>
      <path id="svg_146" fill-rule="evenodd" fill="#FFFFFF" stroke-linecap="round" stroke-width="1.417323" stroke="#000000" d="m0,18.4252l99.2126,0l0,0l0,-18.4252l0,0l-99.2126,0l0,0l0,18.4252"/>
      <g id="svg_147" transform="matrix(1,0,0,1,-17.362206,0.7086611) ">
       <text id="svg_148" transform="matrix(1,0,0,-1,0,10.26992) " fill="#000000" class="TextStyle0" y="4.949291" x="23.250074">tableware_id</text>
      </g>
     </g>
     <g id="svg_149" transform="matrix(1,0,0,1,0,92.125984) ">
      <title>Shape33</title>
      <path id="svg_150" fill-rule="evenodd" fill="#FFFFFF" stroke-linecap="round" stroke-width="1.417323" stroke="#000000" d="m0,18.4252l99.2126,0l0,0l0,-18.4252l0,0l-99.2126,0l0,0l0,18.4252"/>
      <g id="svg_151" transform="matrix(1,0,0,1,-15.590549,0.7086611) ">
       <text id="svg_152" transform="matrix(1,0,0,-1,0,10.26992) " fill="#000000" class="TextStyle0" y="4.949291" x="22.198833">decorating_id</text>
      </g>
     </g>
     <g id="svg_153" transform="matrix(1,0,0,1,0,73.70079) ">
      <title>Shape34</title>
      <path id="svg_154" fill-rule="evenodd" fill="#FFFFFF" stroke-linecap="round" stroke-width="1.417323" stroke="#000000" d="m0,18.4252l99.2126,0l0,0l0,-18.4252l0,0l-99.2126,0l0,0l0,18.4252"/>
      <g id="svg_155" transform="matrix(1,0,0,1,-19.84252,0.7086611) ">
       <text id="svg_156" transform="matrix(1,0,0,-1,0,10.26992) " fill="#000000" class="TextStyle0" y="4.949291" x="26.03526">food_name</text>
      </g>
     </g>
     <g id="svg_157" transform="matrix(1,0,0,1,0,55.27559) ">
      <title>Shape35</title>
      <path id="svg_158" fill-rule="evenodd" fill="#FFFFFF" stroke-linecap="round" stroke-width="1.417323" stroke="#000000" d="m0,18.4252l99.2126,0l0,0l0,-18.4252l0,0l-99.2126,0l0,0l0,18.4252"/>
      <g id="svg_159" transform="matrix(1,0,0,1,-18.779528,0.7086611) ">
       <text id="svg_160" transform="matrix(1,0,0,-1,0,10.26992) " fill="#000000" class="TextStyle0" y="4.949291" x="25.314291">food_image</text>
      </g>
     </g>
     <g id="svg_161" transform="matrix(1,0,0,1,0,36.850395) ">
      <title>Shape36</title>
      <path id="svg_162" fill-rule="evenodd" fill="#FFFFFF" stroke-linecap="round" stroke-width="1.417323" stroke="#000000" d="m0,18.4252l99.2126,0l0,0l0,-18.4252l0,0l-99.2126,0l0,0l0,18.4252"/>
      <g id="svg_163" transform="matrix(1,0,0,1,-9.212599,0.7086611) ">
       <text id="svg_164" transform="matrix(1,0,0,-1,0,10.26992) " fill="#000000" class="TextStyle0" y="4.949291" x="16.727144">food_description</text>
      </g>
     </g>
     <g id="svg_165" transform="matrix(1,0,0,1,0,18.425196) ">
      <title>Shape37</title>
      <path id="svg_166" fill-rule="evenodd" fill="#FFFFFF" stroke-linecap="round" stroke-width="1.417323" stroke="#000000" d="m0,18.4252l99.2126,0l0,0l0,-18.4252l0,0l-99.2126,0l0,0l0,18.4252"/>
      <g id="svg_167" transform="matrix(1,0,0,1,-15.236219,0.7086611) ">
       <text id="svg_168" transform="matrix(1,0,0,-1,0,10.26992) " fill="#000000" class="TextStyle0" y="4.949291" x="21.471825">food_quantity</text>
      </g>
     </g>
     <g id="svg_169">
      <title>Shape38</title>
      <path id="svg_170" fill-rule="evenodd" fill="#FFFFFF" stroke-linecap="round" stroke-width="1.417323" stroke="#000000" d="m0,18.4252l99.2126,0l0,0l0,-18.4252l0,0l-99.2126,0l0,0l0,18.4252"/>
      <g id="svg_171" transform="matrix(1,0,0,1,-23.031496,0.7086611) ">
       <text id="svg_172" transform="matrix(1,0,0,-1,0,10.26992) " fill="#000000" class="TextStyle0" y="4.949291" x="29.283632">food_size</text>
      </g>
     </g>
    </g>
    <g id="svg_173" transform="matrix(1,0,0,1,511.65353,1070.0787) ">
     <title>Shape3910000</title>
     <g id="svg_174">
      <title>Shape39</title>
      <path id="svg_175" fill-rule="evenodd" fill="#FFFFFF" stroke-linecap="round" stroke-width="1.417323" stroke="#000000" d="m0,36.8504l0,18.42519l0,0l99.2126,0l0,0l0,-18.42519"/>
      <path id="svg_176" fill="none" stroke-linecap="round" stroke-width="1.417323" stroke="#000000" d="m0,36.8504l0,-36.8504l0,0l99.2126,0l0,0l0,36.8504"/>
      <path id="svg_177" fill="none" stroke-linecap="round" stroke-width="1.417323" stroke="#000000" d="m0,36.8504l99.2126,0"/>
      <g id="svg_178" transform="matrix(1,0,0,1,1.4173241,38.267715) ">
       <text id="svg_179" transform="matrix(1,0,0,-1,0,10.26992) " fill="#000000" class="TextStyle0" y="4.949291" x="19.199291">FoodsIngredients</text>
      </g>
     </g>
     <g id="svg_180" transform="matrix(1,0,0,1,0,18.425196) ">
      <title>Shape40</title>
      <path id="svg_181" fill-rule="evenodd" fill="#FFFFFF" stroke-linecap="round" stroke-width="1.417323" stroke="#000000" d="m0,18.4252l99.2126,0l0,0l0,-18.4252l0,0l-99.2126,0l0,0l0,18.4252"/>
      <g id="svg_182" transform="matrix(1,0,0,1,-26.929134,0.7086611) ">
       <text id="svg_183" transform="matrix(1,0,0,-1,0,10.26992) " fill="#000000" class="TextStyle0" y="4.949291" x="32.411175">food_id</text>
      </g>
     </g>
     <g id="svg_184">
      <title>Shape41</title>
      <path id="svg_185" fill-rule="evenodd" fill="#FFFFFF" stroke-linecap="round" stroke-width="1.417323" stroke="#000000" d="m0,18.4252l99.2126,0l0,0l0,-18.4252l0,0l-99.2126,0l0,0l0,18.4252"/>
      <g id="svg_186" transform="matrix(1,0,0,1,-17.007875,0.7086611) ">
       <text id="svg_187" transform="matrix(1,0,0,-1,0,10.26992) " fill="#000000" class="TextStyle0" y="4.949291" x="22.927853">ingredient_id</text>
      </g>
     </g>
    </g>
    <g id="svg_188" transform="matrix(1,0,0,1,681.73224,1289.7638) ">
     <title>Shape4210000</title>
     <g id="svg_189">
      <title>Shape42</title>
      <path id="svg_190" fill-rule="evenodd" fill="#FFFFFF" stroke-linecap="round" stroke-width="1.417323" stroke="#000000" d="m0,73.70079l0,18.42519l0,0l99.2126,0l0,0l0,-18.42519"/>
      <path id="svg_191" fill="none" stroke-linecap="round" stroke-width="1.417323" stroke="#000000" d="m0,73.70079l0,-73.70079l0,0l99.2126,0l0,0l0,73.70079"/>
      <path id="svg_192" fill="none" stroke-linecap="round" stroke-width="1.417323" stroke="#000000" d="m0,73.70079l99.2126,0"/>
      <g id="svg_193" transform="matrix(1,0,0,1,1.4173241,75.11812) ">
       <text id="svg_194" transform="matrix(1,0,0,-1,0,10.26992) " fill="#000000" class="TextStyle0" y="4.949291" x="30.623985">Tableware</text>
      </g>
     </g>
     <g id="svg_195" transform="matrix(1,0,0,1,0,55.27559) ">
      <title>Shape43</title>
      <path id="svg_196" fill-rule="evenodd" fill="#FFFFFF" stroke-linecap="round" stroke-width="1.417323" stroke="#000000" d="m0,18.4252l99.2126,0l0,0l0,-18.4252l0,0l-99.2126,0l0,0l0,18.4252"/>
      <g id="svg_197" transform="matrix(1,0,0,1,-17.362206,0.7086611) ">
       <text id="svg_198" transform="matrix(1,0,0,-1,0,10.26992) " fill="#000000" class="TextStyle0" y="4.949291" x="23.250074">tableware_id</text>
      </g>
     </g>
     <g id="svg_199" transform="matrix(1,0,0,1,0,36.850395) ">
      <title>Shape44</title>
      <path id="svg_200" fill-rule="evenodd" fill="#FFFFFF" stroke-linecap="round" stroke-width="1.417323" stroke="#000000" d="m0,18.4252l99.2126,0l0,0l0,-18.4252l0,0l-99.2126,0l0,0l0,18.4252"/>
      <g id="svg_201" transform="matrix(1,0,0,1,-9.92126,0.7086611) ">
       <text id="svg_202" transform="matrix(1,0,0,-1,0,10.26992) " fill="#000000" class="TextStyle0" y="4.949291" x="16.874155">tableware_name</text>
      </g>
     </g>
     <g id="svg_203" transform="matrix(1,0,0,1,0,18.425196) ">
      <title>Shape45</title>
      <path id="svg_204" fill-rule="evenodd" fill="#FFFFFF" stroke-linecap="round" stroke-width="1.417323" stroke="#000000" d="m0,18.4252l99.2126,0l0,0l0,-18.4252l0,0l-99.2126,0l0,0l0,18.4252"/>
      <g id="svg_205" transform="matrix(1,0,0,1,-8.858268,0.7086611) ">
       <text id="svg_206" transform="matrix(1,0,0,-1,0,10.26992) " fill="#000000" class="TextStyle0" y="4.949291" x="16.15319">tableware_image</text>
      </g>
     </g>
     <g id="svg_207">
      <title>Shape46</title>
      <path id="svg_208" fill-rule="evenodd" fill="#FFFFFF" stroke-linecap="round" stroke-width="1.417323" stroke="#000000" d="m0,18.4252l99.2126,0l0,0l0,-18.4252l0,0l-99.2126,0l0,0l0,18.4252"/>
      <g id="svg_209" transform="matrix(1,0,0,1,0.35433054,0.7086611) ">
       <text id="svg_210" transform="matrix(1,0,0,-1,0,10.26992) " fill="#000000" class="TextStyle0" y="4.949291" x="7.56604">tableware_description</text>
      </g>
     </g>
    </g>
    <g id="svg_211" transform="matrix(1,0,0,1,-411.02365,1097.7164) ">
     <title>Dynamic connector.47</title>
     <path id="svg_212" fill-rule="evenodd" fill="#000000" stroke-width="1.417323" stroke="#000000" d="m1027.64974,2.88l-5.76001,-2.88l5.76001,-2.88m0,5.76c-1.15198,-1.728 -1.15198,-4.032 0,-5.76"/>
     <path id="svg_213" fill="none" stroke-linecap="round" stroke-width="1.417323" stroke="#000000" d="m1092.75586,115.15748l-35.43298,0l0,0l0,-115.15748l0,0l-35.43311,0"/>
    </g>
    <g id="svg_214" transform="matrix(1,0,0,1,-524.4095,1079.2913) ">
     <title>Dynamic connector.48</title>
     <path id="svg_215" fill-rule="evenodd" fill="#000000" stroke-width="1.417323" stroke="#000000" d="m1030.30298,-2.88l5.76001,2.88l-5.76001,2.88m0,-5.76c1.15198,1.728 1.15198,4.032 0,5.76"/>
     <path id="svg_216" fill="none" stroke-linecap="round" stroke-width="1.417323" stroke="#000000" d="m1036.06299,152.00787l-14.17322,0l0,0l0,-152.00787l0,0l14.17322,0"/>
    </g>
    <g id="svg_217" transform="matrix(1,0,0,1,-240.94487,1208.2677) ">
     <title>Dynamic connector.49</title>
     <path id="svg_218" fill-rule="evenodd" fill="#000000" stroke-width="1.417323" stroke="#000000" d="m1027.64974,2.88l-5.76001,-2.88l5.76001,-2.88m0,5.76c-1.15198,-1.728 -1.15198,-4.032 0,-5.76"/>
     <path id="svg_219" fill="none" stroke-linecap="round" stroke-width="1.417323" stroke="#000000" d="m1021.88977,150.59055l14.17322,0l0,0l0,-150.59055l0,0l-14.17322,0"/>
    </g>
    <g id="svg_220" transform="matrix(1,0,0,1,554.1732,1289.7638) ">
     <title>Shape5010000</title>
     <g id="svg_221">
      <title>Shape50</title>
      <path id="svg_222" fill-rule="evenodd" fill="#FFFFFF" stroke-linecap="round" stroke-width="1.417323" stroke="#000000" d="m0,73.70079l0,18.42519l0,0l99.2126,0l0,0l0,-18.42519"/>
      <path id="svg_223" fill="none" stroke-linecap="round" stroke-width="1.417323" stroke="#000000" d="m0,73.70079l0,-73.70079l0,0l99.2126,0l0,0l0,73.70079"/>
      <path id="svg_224" fill="none" stroke-linecap="round" stroke-width="1.417323" stroke="#000000" d="m0,73.70079l99.2126,0"/>
      <g id="svg_225" transform="matrix(1,0,0,1,1.4173241,75.11812) ">
       <text id="svg_226" transform="matrix(1,0,0,-1,0,10.26992) " fill="#000000" class="TextStyle0" y="4.949291" x="29.83052">Decorating</text>
      </g>
     </g>
     <g id="svg_227" transform="matrix(1,0,0,1,0,55.27559) ">
      <title>Shape51</title>
      <path id="svg_228" fill-rule="evenodd" fill="#FFFFFF" stroke-linecap="round" stroke-width="1.417323" stroke="#000000" d="m0,18.4252l99.2126,0l0,0l0,-18.4252l0,0l-99.2126,0l0,0l0,18.4252"/>
      <g id="svg_229" transform="matrix(1,0,0,1,-15.590549,0.7086611) ">
       <text id="svg_230" transform="matrix(1,0,0,-1,0,10.26992) " fill="#000000" class="TextStyle0" y="4.949291" x="22.198833">decorating_id</text>
      </g>
     </g>
     <g id="svg_231" transform="matrix(1,0,0,1,0,36.850395) ">
      <title>Shape52</title>
      <path id="svg_232" fill-rule="evenodd" fill="#FFFFFF" stroke-linecap="round" stroke-width="1.417323" stroke="#000000" d="m0,18.4252l99.2126,0l0,0l0,-18.4252l0,0l-99.2126,0l0,0l0,18.4252"/>
      <g id="svg_233" transform="matrix(1,0,0,1,-8.503938,0.7086611) ">
       <text id="svg_234" transform="matrix(1,0,0,-1,0,10.26992) " fill="#000000" class="TextStyle0" y="4.949291" x="15.822915">decorating_name</text>
      </g>
     </g>
     <g id="svg_235" transform="matrix(1,0,0,1,0,18.425196) ">
      <title>Shape53</title>
      <path id="svg_236" fill-rule="evenodd" fill="#FFFFFF" stroke-linecap="round" stroke-width="1.417323" stroke="#000000" d="m0,18.4252l99.2126,0l0,0l0,-18.4252l0,0l-99.2126,0l0,0l0,18.4252"/>
      <g id="svg_237" transform="matrix(1,0,0,1,-7.4409447,0.7086611) ">
       <text id="svg_238" transform="matrix(1,0,0,-1,0,10.26992) " fill="#000000" class="TextStyle0" y="4.949291" x="15.101948">decorating_image</text>
      </g>
     </g>
     <g id="svg_239">
      <title>Shape54</title>
      <path id="svg_240" fill-rule="evenodd" fill="#FFFFFF" stroke-linecap="round" stroke-width="1.417323" stroke="#000000" d="m0,18.4252l99.2126,0l0,0l0,-18.4252l0,0l-99.2126,0l0,0l0,18.4252"/>
      <g id="svg_241" transform="matrix(1,0,0,1,2.1259842,0.7086611) ">
       <text id="svg_242" transform="matrix(1,0,0,-1,0,10.26992) " fill="#000000" class="TextStyle0" y="4.949291" x="6.514798">decorating_description</text>
      </g>
     </g>
    </g>
    <g id="svg_243" transform="matrix(1,0,0,1,-368.5039,1171.4174) ">
     <title>Dynamic connector.55</title>
     <path id="svg_244" fill-rule="evenodd" fill="#000000" stroke-width="1.417323" stroke="#000000" d="m1146.5689,5.76006l2.88,-5.76001l2.88,5.76001m-5.76,0c1.728,-1.15198 4.032,-1.15198 5.76,0"/>
     <path id="svg_245" fill="none" stroke-linecap="round" stroke-width="1.417323" stroke="#000000" d="m1021.88977,182.83464l17.71655,0l0,0l0,48.89764l0,0l148.81885,0l0,0l0,-213.30708l0,0l-38.97632,0l0,0l0,-18.4252"/>
    </g>
   </g>
  </g>
 </g>
 <style type="text/css">
  <![CDATA[ .TextStyle0 {font-family:Calibri;font-size:8.248819px;} ]]>
 </style>
 <g>
  <title>Layer 1</title>
  <g id="SFixTitle"/>
 </g>
 <g>
  <title>background</title>
  <rect fill="none" id="canvas_background" height="402" width="902" y="-1" x="-1"/>
 </g>
</svg>